<?xml version="1.0" encoding="UTF-8"?>
<svg width="118px" height="90px" viewBox="0 0 118 90" version="1.1" xmlns="http://www.w3.org/2000/svg" xmlns:xlink="http://www.w3.org/1999/xlink">
    <!-- Generator: Sketch 55.2 (78181) - https://sketchapp.com -->
    <title>Hikers</title>
    <desc>Created with Sketch.</desc>
    <defs>
        <polygon id="path-1" points="0.16 0.9491 61.024 0.9491 61.024 80.8436528 0.16 80.8436528"></polygon>
    </defs>
    <g id="Page-1" stroke="none" stroke-width="1" fill="none" fill-rule="evenodd">
        <g id="Mobile" transform="translate(-23.000000, -416.000000)">
            <g id="Footpath" transform="translate(10.000000, 363.000000)">
                <g id="Hikers" transform="translate(13.000000, 53.000000)">
                    <path d="M37.1715,18.978 C37.1715,22.389 34.4065,25.154 30.9955,25.154 C27.5845,25.154 24.8185,22.389 24.8185,18.978 C24.8185,15.567 27.5845,12.802 30.9955,12.802 C34.4065,12.802 37.1715,15.567 37.1715,18.978" id="Fill-1" fill="#231F20"></path>
                    <path d="M99.1593,7.1869 C99.1593,11.1559 95.9413,14.3739 91.9723,14.3739 C88.0033,14.3739 84.7853,11.1559 84.7853,7.1869 C84.7853,3.2179 88.0033,-0.0001 91.9723,-0.0001 C95.9413,-0.0001 99.1593,3.2179 99.1593,7.1869" id="Fill-3" fill="#231F20"></path>
                    <path d="M42.3351,62.2133 L29.3131,53.7873 L32.5681,44.1333 L35.8241,48.0623 L47.3931,45.1433 L42.3351,62.2133 Z M51.2101,40.5403 L53.5671,30.8803 L51.2101,30.2063 L48.4031,40.6523 L35.8241,41.6633 L34.5891,38.1833 C34.5891,38.1833 37.3961,30.2063 35.2631,28.9713 C33.1291,27.7363 23.6931,24.3683 22.4591,25.1543 C21.2241,25.9403 19.8771,27.4003 19.8771,27.4003 L19.3151,23.8073 L4.9451,21.0013 L0.0001,52.2163 L17.0701,55.2473 C17.0701,55.2473 14.7121,67.1523 13.5901,69.0613 C12.4671,70.9703 2.9191,86.8053 3.3681,87.5903 C3.8171,88.3773 5.6191,91.4073 8.2011,89.0503 C10.7831,86.6923 20.5501,71.7553 21.1111,70.0713 C21.6731,68.3883 24.2551,58.9583 24.2551,58.9583 C24.2551,58.9583 36.6101,65.9183 37.1711,67.4893 C37.7321,69.0613 39.4161,73.5523 39.4161,73.5523 L35.1501,88.7133 L37.1711,89.2753 L40.7631,77.7123 C40.7631,77.7123 43.2331,88.6013 46.7191,87.4783 C50.1991,86.3563 48.5161,85.1213 48.0661,82.0893 C47.6171,79.0593 44.4681,64.2343 44.4681,64.2343 L49.8631,44.3573 C49.8631,44.3573 55.5881,42.8983 51.2101,40.5403 L51.2101,40.5403 Z" id="Fill-5" fill="#231F20"></path>
                    <g id="Group-9" transform="translate(57.000000, 8.931700)">
                        <mask id="mask-2" fill="white">
                            <use xlink:href="#path-1"></use>
                        </mask>
                        <g id="Clip-8"></g>
                        <path d="M48.108,48.6791 L33.401,39.0181 L37.107,28.1291 L40.699,31.6091 L53.615,28.8021 L48.108,48.6791 Z M58.106,22.7341 L61.025,12.0691 L58.106,11.6201 L55.074,23.4081 L41.148,24.8671 L39.352,20.1521 C39.352,20.1521 42.383,10.1601 37.78,8.8131 C33.177,7.4661 26.323,6.1131 26.323,6.1131 C26.323,6.1131 23.067,5.7761 22.282,8.2521 L21.945,3.8681 L5.548,0.9491 L0.16,37.2221 L19.363,40.8141 C19.363,40.8141 16.107,53.8431 14.76,56.7621 C13.413,59.6801 3.864,76.1891 3.752,77.9861 C3.64,79.7821 6.783,81.9151 8.698,80.2311 C10.607,78.5471 23.741,58.7831 24.415,56.0881 C25.088,53.3941 27.783,44.8561 27.783,44.8561 C27.783,44.8561 35.759,51.8221 42.158,54.0681 L44.628,61.2521 L40.025,79.6701 L42.944,80.1181 L46.312,66.8661 C46.312,66.8661 49.012,79.4451 53.615,77.7611 C58.218,76.0771 50.359,51.2611 50.359,51.2611 L56.758,28.1291 C56.758,28.1291 63.157,25.5411 58.106,22.7341 L58.106,22.7341 Z" id="Fill-7" fill="#231F20" mask="url(#mask-2)"></path>
                    </g>
                </g>
            </g>
        </g>
    </g>
</svg>