<?xml version="1.0" encoding="UTF-8"?>
<svg width="119px" height="76px" viewBox="0 0 119 76" version="1.1" xmlns="http://www.w3.org/2000/svg" xmlns:xlink="http://www.w3.org/1999/xlink">
    <!-- Generator: Sketch 55.2 (78181) - https://sketchapp.com -->
    <title>Tent</title>
    <desc>Created with Sketch.</desc>
    <defs>
        <polygon id="path-1" points="0.323676 0.359247863 110.648796 0.359247863 110.648796 73.3959197 0.323676 73.3959197"></polygon>
    </defs>
    <g id="Page-1" stroke="none" stroke-width="1" fill="none" fill-rule="evenodd">
        <g id="Mobile" transform="translate(-23.000000, -903.000000)">
            <g id="Footpath" transform="translate(10.000000, 363.000000)">
                <g id="Tent" transform="translate(13.000000, 540.000000)">
                    <path d="M80.8692081,75.9300301 L82,76 L38,76 L39.1812338,75.9173083 C39.1627171,75.7016739 37.7637532,53.5523937 47.4434851,43.2222966 C50.6934742,39.7562437 54.8890888,38 59.9141211,38 C64.9385149,38 69.1398761,39.7562437 72.4090203,43.2222966 C82.1526026,53.5466689 80.8826167,75.7073987 80.8692081,75.9300301" id="Fill-1" fill="#231F20"></path>
                    <path d="M82.7524345,76 C82.7970037,75.2567496 83.0580524,69.8380095 82.1857678,63.1360508 C80.9378277,53.5500265 78.0790262,46.3271572 73.6857678,41.6580201 C69.9610487,37.7003706 65.1857678,35.6929592 59.5,35.6929592 C53.8078652,35.6929592 49.0453184,37.7003706 45.3460674,41.6580201 C40.9719101,46.3271572 38.1513109,53.556379 36.9606742,63.1424034 C36.1265918,69.831657 36.4194757,75.2446797 36.4640449,76 L0,76 L3.80749064,70.6320805 C3.80749064,70.6320805 4.28501873,69.787189 5.02359551,68.332451 C5.80037453,66.82054 6.86367041,64.6416093 7.97790262,62.0815246 C10.359176,56.5929063 12.9632959,49.3128639 13.4089888,42.9285336 C13.4280899,42.7697194 13.440824,42.6109052 13.447191,42.4584436 C13.447191,42.4584436 13.4981273,42.4457385 13.593633,42.4203282 C14.8797753,42.070937 24.4558052,38.9010058 30.9247191,20.9931181 C30.9247191,20.9931181 49.3,17.4166226 58.4876404,4 C58.4876404,4 61.6265918,14.0624669 88.5209738,21.2224457 C88.5209738,21.2224457 92.1565543,35.1021705 104.005618,41.4928534 C104.642322,41.835892 105.310861,42.1598729 105.998502,42.4584436 C105.998502,42.4584436 106.183146,44.9359449 106.870787,48.6776072 C107.679401,53.1180519 109.207491,59.3378507 111.989888,65.321334 C112.88764,67.2588671 113.919101,69.1773425 115.103371,71.0005294 C116.255805,72.7792483 117.548315,74.4626787 119,76 L82.7524345,76 Z" id="Fill-3" fill="#231F20"></path>
                    <g id="Group-7" transform="translate(5.000000, 0.000000)">
                        <mask id="mask-2" fill="white">
                            <use xlink:href="#path-1"></use>
                        </mask>
                        <g id="Clip-6"></g>
                        <path d="M108.912122,73.3959197 C108.881676,73.2169282 105.778116,55.2766718 97.3744646,37.5881419 C89.6862874,21.4061761 75.852516,2.11684274 53.6049446,2.11684274 C35.745996,2.11684274 21.6528017,13.5160051 11.7148131,35.9993556 C4.24927029,52.8884325 2.09396743,69.9874923 2.073036,70.1582615 L0.323676,69.9457487 C0.344607429,69.7724496 2.53352743,52.414706 10.1024589,35.2909795 C20.2034589,12.4382615 35.2461789,0.359184615 53.6049446,0.359184615 C71.9522931,0.359184615 87.6438874,12.9834581 98.9823789,36.8677487 C107.481807,54.7738513 110.61835,72.9221932 110.648796,73.1030821 L108.912122,73.3959197 Z" id="Fill-5" fill="#231F20" mask="url(#mask-2)"></path>
                    </g>
                </g>
            </g>
        </g>
    </g>
</svg>