<?xml version="1.0" encoding="UTF-8"?>
<svg width="117px" height="91px" viewBox="0 0 117 91" version="1.1" xmlns="http://www.w3.org/2000/svg" xmlns:xlink="http://www.w3.org/1999/xlink">
    <!-- Generator: Sketch 55.2 (78181) - https://sketchapp.com -->
    <title>Trees</title>
    <desc>Created with Sketch.</desc>
    <g id="Page-1" stroke="none" stroke-width="1" fill="none" fill-rule="evenodd">
        <g id="Mobile" transform="translate(-23.000000, -640.000000)" fill="#231F20">
            <g id="Footpath" transform="translate(10.000000, 363.000000)">
                <g id="Trees" transform="translate(13.000000, 277.000000)">
                    <polygon id="Fill-1" points="24.8333065 77.6852782 24 91 33 91 32.0003215 76"></polygon>
                    <polygon id="Fill-2" points="60.492373 0 51.0196047 10.7764916 55.9248308 9.23688676 48.6514126 16.7634314 51.3580227 16.5926941 48.6514126 20.0133784 50.3435027 20.3555953 47.2977405 23.9477591 49.3282486 23.9477591 40.3627403 29.9346989 43.5766104 31.6442987 38.3329663 37.9741977 43.9150284 37.1182843 39.8554803 39.8552771 42.5620904 42.250053 35.1190962 49.2629011 37.8257063 50.6317687 31.5675422 58.1583133 38.5018082 56.7894458 31.5675422 61.7497349 34.9502542 64.6582073 27 73.8950941 38.6721184 69.4470168 38.1641243 75.7769158 43.4077685 70.6451471 45.9455366 77.3157783 51.5268647 69.2762795 56.9400849 73.5528772 54.9095767 91 67.0896892 91 64.7214971 74.7510075 67.0896892 68.5918457 75.7160454 78.0002121 77.9146614 70.8158844 83.6662996 75.7769158 83.6662996 69.2762795 95 73.7236144 87.5577398 65.3426411 90.7708758 61.4082603 83.4974577 56.6187085 89.4172037 57.3031423 83.1590396 51.3162025 86.7113277 48.749947 79.0994915 42.4215326 81.9749436 39.6845398 79.0994915 36.7768097 83.1590396 36.7768097 77.9146614 30.9613496 79.6067515 28.9080482 71.6564973 23.2633253 74.0246894 23.2633253 70.9796612 20.3555953 73.3471192 20.3555953 69.4571472 16.0789976 72.1637573 16.0789976 65.2287571 8.72393259 70.3028252 10.6057543"></polygon>
                    <polygon id="Fill-3" points="19.9377238 23 23.6864004 21.6385965 18.9149541 27.9359187 20.959754 27.9359187 17.2103378 34.2339797 19.0850459 34.2339797 10.9058462 39.3397969 13.4616612 41.0424746 8.86104624 47 14.3135996 44.6169898 10.2239997 48.5320406 12.7798147 49.722807 6.47532306 55.8517082 9.5421532 57.2131117 4.08959988 63.1706371 8.520123 63 2.89599875 66.4038781 6.8162463 69.1281625 0 75.7660203 9.88307644 72.7019391 9.20122995 77.8084949 13.9726763 73.8934441 16.359139 79 29.6507084 65.3830102 28.2870154 62.3189289 21.1298459 62.3189289 33.9111397 51.5961219 32.2065234 47 38 41.8934441 28.2870154 42.9150508 38 33.0424746 35.4434454 28.2764543 38 28.2764543 32.035692 21.4679594 35.7843687 22.489566 28.2870154 15"></polygon>
                    <polygon id="Fill-4" points="85 91 94 91 94 77.2124752 87.2501878 75"></polygon>
                    <polygon id="Fill-5" points="81 23.3880136 85.394287 22.1896198 81 31.4350087 92.0704346 42.5615713 82.8593753 41.5348012 88.7741692 47.1842658 87.4230965 51.6353366 99.9289542 62.5917614 93.1691897 62.5917614 90.4648438 65.3310534 101.282227 76.1165975 102.971435 73.8906906 107.027587 78 106.858886 73.3773055 117 76.1165975 110.070068 69.0978584 113.281983 66.7010708 106.689452 62.9342658 112.098144 63.7908982 107.365722 57.9698099 109.901367 55.743903 104.15454 50.7794471 106.18335 48.7251639 102.971435 45.8149913 107.534423 47.1842658 102.464599 41.1922968 105.337646 38.7962522 95.8728021 28.3524695 98.4084473 28.0107081 93.1691897 22.3612435 96.210937 23.0455092 88.7741692 15"></polygon>
                </g>
            </g>
        </g>
    </g>
</svg>