<?xml version="1.0" encoding="UTF-8"?>
<svg width="67px" height="115px" viewBox="0 0 67 115" version="1.1" xmlns="http://www.w3.org/2000/svg" xmlns:xlink="http://www.w3.org/1999/xlink">
    <!-- Generator: Sketch 55.2 (78181) - https://sketchapp.com -->
    <title>Backpack</title>
    <desc>Created with Sketch.</desc>
    <defs>
        <polygon id="path-1" points="0 115 67 115 67 0 0 0"></polygon>
    </defs>
    <g id="Page-1" stroke="none" stroke-width="1" fill="none" fill-rule="evenodd">
        <g id="Mobile" transform="translate(-127.000000, -2800.000000)">
            <g id="Safety" transform="translate(10.000000, 2434.000000)">
                <g id="Backpack" transform="translate(117.000000, 366.000000)">
                    <path d="M0,19 L67,19 L67,34.6279385 C67,34.6279385 64.5986365,58.9120609 39.6240771,62.999475 L39.6240771,55.7860937 L27.856701,55.7860937 L27.856701,62.999475 C27.856701,62.999475 8.16501495,63.4801984 0,35.3496561 L0,19 Z" id="Fill-1" fill="#231F20"></path>
                    <path d="M52.6412077,98.6615668 C52.6412077,105.87819 47.1307063,105.87819 47.1307063,105.87819 C47.1307063,105.87819 26.3041598,106.118765 20.3213297,105.87819 C14.3384996,105.638248 13.8598732,98.4203585 13.8598732,98.4203585 L13.8598732,79.9979952 L52.6412077,79.9979952 L52.6412077,98.6615668 Z M39.4726838,67.1398833 L39.4726838,73.1542636 L27.2614127,73.1542636 L27.2614127,66.4175246 C6.67417936,64.2466499 0.212722848,45 0.212722848,45 C0.212722848,45 -0.26590356,95.0529386 0.212722848,103.713013 C0.691349257,112.380685 9.31292233,114.786437 9.31292233,114.786437 C9.31292233,114.786437 46.6520799,115.266954 56.470219,114.786437 C66.2820604,114.305286 67,101.788411 67,101.788411 L67,45 C58.3847246,66.4175246 39.4726838,67.1398833 39.4726838,67.1398833 L39.4726838,67.1398833 Z" id="Fill-3" fill="#231F20"></path>
                    <mask id="mask-2" fill="white">
                        <use xlink:href="#path-1"></use>
                    </mask>
                    <g id="Clip-6"></g>
                    <polygon id="Fill-5" fill="#231F20" mask="url(#mask-2)" points="29 69 37 69 37 58 29 58"></polygon>
                    <path d="M18.0163866,16 L23.2265195,16 C23.2265195,16 21.3317558,4.61328294 27.9631172,4.37612468 C34.5944785,4.13834232 40.9896954,4.37612468 40.9896954,4.37612468 C40.9896954,4.37612468 47.1468985,6.03623251 45.7262931,16 L49.9893556,16 C49.9893556,16 50.6996583,0.343186034 40.5155372,0.105403672 C30.3320391,-0.13175459 27.489582,0.105403672 27.489582,0.105403672 C27.489582,0.105403672 17.5428515,0.580344296 18.0163866,16" id="Fill-7" fill="#231F20" mask="url(#mask-2)"></path>
                </g>
            </g>
        </g>
    </g>
</svg>