<?xml version="1.0" encoding="UTF-8"?>
<svg width="113px" height="101px" viewBox="0 0 113 101" version="1.1" xmlns="http://www.w3.org/2000/svg" xmlns:xlink="http://www.w3.org/1999/xlink">
    <!-- Generator: Sketch 55.2 (78181) - https://sketchapp.com -->
    <title>UtilityKnife</title>
    <desc>Created with Sketch.</desc>
    <defs>
        <polygon id="path-1" points="0.179911111 0.0618952135 31.7130159 0.0618952135 31.7130159 37.9202514 0.179911111 37.9202514"></polygon>
        <polygon id="path-3" points="0 0.0551487751 49.5947959 0.0551487751 49.5947959 44.8037386 0 44.8037386"></polygon>
        <polygon id="path-5" points="0.40025 0.04805 27.57775 0.04805 27.57775 30.9053065 0.40025 30.9053065"></polygon>
        <polygon id="path-7" points="0.454594737 0.445452632 8.94206842 0.445452632 8.94206842 9 0.454594737 9"></polygon>
    </defs>
    <g id="Page-1" stroke="none" stroke-width="1" fill="none" fill-rule="evenodd">
        <g id="Mobile" transform="translate(-99.000000, -3020.000000)">
            <g id="Safety" transform="translate(10.000000, 2434.000000)">
                <g id="UtilityKnife" transform="translate(89.000000, 586.000000)">
                    <path d="M52,12.5044968 C52,12.5044968 55.7977298,1.71376723 65.1460271,2.00582328 C74.4943245,2.29736786 78,12.5044968 78,12.5044968 L78,82.2041092 C78,82.2041092 75.9556204,93.2863833 65,92.9943273 C54.044892,92.7027827 52,82.7871983 52,82.7871983 L52,12.5044968 Z" id="Fill-1" fill="#231F20"></path>
                    <g id="Group-5" transform="translate(81.000000, 10.000000)">
                        <mask id="mask-2" fill="white">
                            <use xlink:href="#path-1"></use>
                        </mask>
                        <g id="Clip-4"></g>
                        <path d="M0.179911111,37.9202514 L0.179911111,24.4518189 L22.1903238,2.19973784 C22.1903238,2.19973784 26.8237206,-1.02050541 31.1681016,0.443521622 C31.1681016,0.443521622 33.1952762,4.54238649 29.4304508,9.51935946 C25.6656254,14.4973595 0.179911111,37.9202514 0.179911111,37.9202514" id="Fill-3" fill="#231F20" mask="url(#mask-2)"></path>
                    </g>
                    <g id="Group-8" transform="translate(0.000000, 23.000000)">
                        <mask id="mask-4" fill="white">
                            <use xlink:href="#path-3"></use>
                        </mask>
                        <g id="Clip-7"></g>
                        <path d="M49.5947959,27.3099886 L49.5947959,21.4789091 L33.5953061,19.1460682 C33.5953061,19.1460682 15.410102,-1.84643182 7.705,0.194931818 L24.2866327,17.9801591 L-0.000102040816,15.3558409 C-0.000102040816,15.3558409 10.032551,25.2691364 31.2682653,24.9771477 L49.5947959,44.8037386 L49.5947959,36.6398182 L41.1590816,26.7265227 L49.5947959,27.3099886 Z" id="Fill-6" fill="#231F20" mask="url(#mask-4)"></path>
                    </g>
                    <g id="Group-11" transform="translate(22.000000, 0.000000)">
                        <mask id="mask-6" fill="white">
                            <use xlink:href="#path-5"></use>
                        </mask>
                        <g id="Clip-10"></g>
                        <path d="M0.40025,0.246708333 C0.40025,0.246708333 2.68125,0.443041667 1.73025,3.683575 C0.78025,6.92410833 -0.26475,11.4408083 3.53575,10.4591417 C7.33725,9.47695833 8.57275,8.86729167 8.19225,10.5955417 C7.81225,12.324825 6.23325,17.136025 8.25825,17.2347083 C10.28325,17.3323583 15.03475,14.7795083 14.93925,16.252525 C14.84475,17.7255417 12.75675,23.2249417 14.94075,23.715775 C17.12475,24.2066083 21.68625,21.8500917 21.40125,23.2249417 C21.11625,24.599275 18.95575,30.196325 21.41375,30.6871583 C23.87175,31.1779917 27.57775,30.6871583 27.57775,30.6871583 L27.57775,27.937975 C27.57775,27.937975 22.16125,29.7054917 23.30225,26.9557917 C24.44225,24.2066083 24.53725,19.9838917 22.25675,20.180225 C19.97575,20.377075 15.88975,22.635425 16.64975,20.377075 C17.41025,18.1182083 19.21575,14.0923417 16.84025,13.6015083 C14.46425,13.1101583 8.95225,16.1543583 9.99775,13.6015083 C11.04325,11.0481417 12.18325,7.12044167 9.99775,6.92410833 C7.81225,6.727775 2.30075,9.280625 3.63125,6.33459167 C4.96125,3.389075 4.77125,-0.931291667 0.40025,0.246708333" id="Fill-9" fill="#231F20" mask="url(#mask-6)"></path>
                    </g>
                    <g id="Group-14" transform="translate(61.000000, 92.000000)">
                        <mask id="mask-8" fill="white">
                            <use xlink:href="#path-7"></use>
                        </mask>
                        <g id="Clip-13"></g>
                        <path d="M0.454594737,1.15597895 L0.454594737,6.47687368 C0.454594737,6.47687368 1.56017368,9.08782105 4.89112105,8.99782105 C8.22159474,8.90782105 8.94206842,6.11687368 8.94206842,6.11687368 L8.94206842,1.09866316 L6.87159474,0.445452632 L6.60917368,1.67797895 L6.78112105,5.48687368 C6.78112105,5.48687368 5.16112105,8.54734737 2.37017368,5.6664 L2.34317368,1.60503158 L1.0197,0.445452632 L0.454594737,1.15597895 Z" id="Fill-12" fill="#231F20" mask="url(#mask-8)"></path>
                    </g>
                </g>
            </g>
        </g>
    </g>
</svg>