<?xml version="1.0" encoding="UTF-8"?>
<svg width="40px" height="40px" viewBox="0 0 40 40" version="1.1" xmlns="http://www.w3.org/2000/svg" xmlns:xlink="http://www.w3.org/1999/xlink">
    <!-- Generator: Sketch 55.2 (78181) - https://sketchapp.com -->
    <title>Logo</title>
    <desc>Created with Sketch.</desc>
    <defs>
        <polygon id="path-1" points="0.000136363636 0.0782022472 39.9213636 0.0782022472 39.9213636 39.5505618 0.000136363636 39.5505618"></polygon>
        <polygon id="path-3" points="0.107865 0.229600067 35.897265 0.229600067 35.897265 36 0.107865 36"></polygon>
    </defs>
    <g id="Page-1" stroke="none" stroke-width="1" fill="none" fill-rule="evenodd">
        <g id="Mobile" transform="translate(-10.000000, -10.000000)">
            <g id="Header">
                <g id="Logo" transform="translate(10.000000, 10.000000)">
                    <g id="Group-3">
                        <mask id="mask-2" fill="white">
                            <use xlink:href="#path-1"></use>
                        </mask>
                        <g id="Clip-2"></g>
                        <path d="M39.9215,19.8140674 C39.9215,23.4662022 38.9183182,26.8868764 37.1692273,29.820809 C37.1124091,29.9165393 37.0542273,30.0118202 36.9955909,30.1062022 C34.8433182,33.5821573 31.6333182,36.3484494 27.8078636,37.966427 C25.3987727,38.9862022 22.7465,39.5506966 19.9605909,39.5506966 C13.9369545,39.5506966 8.5365,36.9120449 4.87695455,32.740809 C1.83831818,29.2778876 0.000136363636,24.7583371 0.000136363636,19.8140674 C0.000136363636,17.6338427 0.357409091,15.5363146 1.01831818,13.5754157 C1.05422727,13.468 1.09104545,13.3614831 1.12877273,13.2545169 C3.86377273,5.57946067 11.2628636,0.0778876404 19.9605909,0.0778876404 C30.9846818,0.0778876404 39.9215,8.91429213 39.9215,19.8140674" id="Fill-1" fill="#231F20" mask="url(#mask-2)"></path>
                    </g>
                    <g id="Group-6" transform="translate(1.000000, 3.000000)">
                        <mask id="mask-4" fill="white">
                            <use xlink:href="#path-3"></use>
                        </mask>
                        <g id="Clip-5"></g>
                        <path d="M22.584015,31.1541722 C21.665115,32.7495646 21.056715,32.447438 20.257065,32.3991342 C19.457415,32.3508304 19.612665,33.3538177 19.612665,33.3538177 L18.872865,33.0516911 C19.039815,32.8707797 18.932715,32.4592861 18.980415,32.3143747 C19.028115,32.1694633 19.135665,31.6859696 19.099665,31.3236911 C19.063665,30.960957 19.195065,30.2236405 19.195065,30.2236405 L19.099665,30.1393367 C19.099665,30.1393367 19.278765,29.7647544 19.927665,27.9884506 C20.576115,26.2121468 20.042415,24.3269316 19.935315,23.7650582 C19.827765,23.2031848 20.901915,22.3328051 20.901915,22.3328051 C21.510315,23.4688557 21.009015,24.0001975 21.688965,24.8947291 C22.369365,25.7892608 22.011615,26.8159443 22.226265,27.0943747 C22.440915,27.3718937 22.918365,30.6952861 22.918365,30.6952861 C22.584015,30.6952861 22.584015,31.1541722 22.584015,31.1541722 L22.584015,31.1541722 Z M17.834715,25.8735646 C17.834715,25.8735646 18.097065,29.0638937 17.763165,29.5715392 C17.763165,29.5715392 17.405415,29.6316911 17.274015,30.1994886 C17.143065,30.7677418 16.307415,31.1181722 15.830415,31.0215646 C15.352515,30.924957 15.054615,30.755438 14.755815,31.1058684 C14.457465,31.4562987 14.362065,31.8554886 14.362065,31.8554886 L14.147415,31.758881 L14.637015,16.3754886 L17.393265,15.6746278 L19.457415,17.6924506 C19.457415,17.6924506 19.338615,19.2395392 19.457415,19.5535139 C19.457415,19.5535139 17.977815,21.3056658 17.727615,22.6230835 C17.476965,23.9400456 18.300015,24.677362 17.834715,25.8735646 L17.834715,25.8735646 Z M14.750415,13.5779696 C14.750415,13.5779696 15.334965,13.6568051 15.734565,13.4872861 C15.734565,13.4872861 16.820415,14.0796911 18.855315,14.4000456 C18.855315,14.4000456 19.033965,14.6597924 19.022265,15.0402987 C19.022265,15.0402987 19.785915,16.1941215 19.517715,17.3060203 L17.429265,15.2941215 L14.637015,15.9526025 L14.750415,13.5779696 Z M31.892265,22.9170076 L26.944065,24.4636405 L23.932665,21.5471848 L23.789565,20.0247038 C25.459965,18.2242481 25.400115,16.931438 25.400115,16.931438 L25.615215,16.8471342 L25.507665,15.7953873 L26.092665,15.7835392 L26.021115,16.9437418 L26.438715,16.9437418 L26.545815,15.6987797 C28.431765,15.372957 28.813365,14.309362 28.813365,14.309362 L29.183265,17.4386278 L29.660715,17.4026278 L29.183265,13.6805013 L29.517165,12.5084506 L30.423915,11.7355899 L29.433465,9.5965519 L29.732265,9.45118481 L30.423915,9.51179241 L30.423915,8.98045063 L29.218815,9.11305823 L27.190665,4.58161519 C28.133415,4.58161519 28.753515,5.16126076 28.753515,5.16126076 L28.753515,4.82313418 L27.751365,4.23118481 L26.975565,4.14642532 L25.710615,1.25867848 L24.982965,1.18576709 C24.982965,1.18576709 25.137765,1.11376709 24.469515,0.593817722 C23.443515,-0.336258228 20.376315,0.762881013 19.803915,1.14976709 C19.231065,1.53619747 19.803915,2.16460253 19.803915,2.16460253 L19.159515,2.6722481 L19.278765,4.4485519 L18.801315,5.40323544 C18.586665,5.33077975 18.527265,4.60576709 18.240615,3.89305823 C17.953965,3.17989367 17.082765,2.45488101 15.830415,2.82946329 C14.577165,3.20404557 14.409765,5.06510886 14.409765,5.06510886 C13.968315,5.43969114 13.323915,6.30915949 13.562865,6.27315949 C13.801365,6.2367038 14.171265,6.32146329 14.660865,6.44222278 C15.150015,6.56343797 15.245415,6.33376709 15.400215,6.35746329 C15.555465,6.38207089 15.531615,6.55113418 15.519915,7.01047595 C15.507765,7.46936203 15.686865,7.36090633 15.758865,7.39690633 C15.830415,7.43336203 15.865965,7.25199494 16.021215,7.39690633 C16.176015,7.54227342 16.331265,7.45796962 16.331265,7.45796962 L16.343415,7.66303291 C16.343415,7.66303291 16.593615,7.65118481 16.641315,7.7960962 C16.689015,7.94100759 16.987365,8.11007089 16.987365,8.11007089 C16.987365,8.11007089 16.832115,8.15837468 16.701165,8.66556456 C16.569765,9.17366582 17.226315,9.10121013 17.118765,9.97113418 C17.011665,10.8410582 18.240615,12.4842987 18.240615,12.4842987 L16.056765,12.375843 C16.056765,12.375843 15.711165,12.4359949 15.412365,12.0855646 C15.114015,11.7355899 14.839965,11.6025266 14.839965,11.6025266 L14.839965,11.1550329 L14.278815,11.1431848 L14.278815,11.5783747 C14.159565,11.5300709 13.956615,11.7232861 13.956615,11.7232861 C13.300515,11.8440456 13.658265,12.2063241 13.658265,12.2063241 C13.323915,12.4359949 13.670415,12.6898177 13.670415,12.6898177 C13.515165,12.9919443 13.837365,13.1127038 13.837365,13.1127038 C13.789665,13.511438 14.278815,13.5237418 14.278815,13.5237418 L14.135715,16.1699696 L9.589365,17.2577165 L0.217665,9.33771646 C0.179865,9.44617215 0.143415,9.55417215 0.107865,9.66308354 L9.517365,17.6199949 L14.135715,16.4597924 L13.634415,31.6135139 C12.874365,31.1008557 7.190865,29.8085013 3.928365,29.0953367 C7.551315,33.3251089 12.897765,36.0000456 18.861165,36.0000456 C21.619215,36.0000456 24.244965,35.4276911 26.629515,34.3937165 L24.891165,34.098881 C25.257015,33.0999949 24.636915,31.8914886 24.636915,31.8914886 L24.700365,31.295438 L24.509565,31.1664759 L24.604965,28.6688051 C25.336665,27.299438 24.047865,24.4636405 24.047865,24.4636405 L23.952465,21.9987797 L26.879715,24.8345772 L31.796415,23.2874886 L35.725815,26.4240456 C35.783865,26.3283494 35.841015,26.2317418 35.897265,26.1346785 L31.892265,22.9170076 Z" id="Fill-4" fill="#236D37" mask="url(#mask-4)"></path>
                    </g>
                </g>
            </g>
        </g>
    </g>
</svg>